# xmcd
#
# Track frame offsets:
#	150
#	16555
#	30063
#	45929
#	58419
#	71090
#	85089
#	101640
#	114498
#	127579
#	141946
#	158799
#
# Disc length: 2374 seconds
#
# Revision: 1
# Processed by: cddbd v1.4PL0 Copyright (c) Steve Scherf et al.
# Submitted via: audiograbber 1.82.02
#
DISCID=8a09440c
DTITLE=Grand Strand Band - Sounds Like O.D. To Me
DYEAR=2002
DGENRE=
TTITLE0=Sounds Like O.D. To Me
TTITLE1=Big Butt Woman
TTITLE2=It's So Easy
TTITLE3=634-5789
TTITLE4=Little Misunderstanding
TTITLE5=The Monkey Time
TTITLE6=Two Hearts
TTITLE7=Let Me Be Your Lover
TTITLE8=Rockin' In My Sleep
TTITLE9=Just The One
TTITLE10=Kidnapper
TTITLE11=The Man I Was
EXTD=
EXTT0=
EXTT1=
EXTT2=
EXTT3=
EXTT4=
EXTT5=
EXTT6=
EXTT7=
EXTT8=
EXTT9=
EXTT10=
EXTT11=
PLAYORDER=
